# xmcd
#
# Track frame offsets:
#	150
#	12161
#	23874
#	36762
#	48536
#	61197
#	74135
#	88627
#	101540
#	114609
#	125900
#	138340
#	151922
#	165042
#	175128
#	186063
#	198213
#	211749
#	224002
#	236188
#	246436
#	259458
#	272225
#	281772
#
# Disc length: 3915 seconds
# Revision: 0
# Processed by: cddbd v1.5.2PL0 Copyright (c) Steve Scherf et al.
# Submitted via: dBpowerAMP V12.0
#
DISCID=6a0f4918
DTITLE=Ruth Brown - Wild Wild Young Men
DYEAR=1949
DGENRE=R&B
TTITLE0=So Long
TTITLE1=Sentimental Journey
TTITLE2=Teardrops from My Eyes
TTITLE3=I'll Wait for You
TTITLE4=I Know
TTITLE5=Shine On
TTITLE6=5-10-15 Hours
TTITLE7=Daddy Daddy
TTITLE8=Mama He Treats Your Daughter Mean
TTITLE9=Wild Wild Young Men
TTITLE10=Ever Since My Baby's Been Gone
TTITLE11=Love Contest
TTITLE12=Oh What a Dream
TTITLE13=Old Man River
TTITLE14=Somebody Touched Me
TTITLE15=Mambo Baby
TTITLE16=I Can See Everybody's Baby
TTITLE17=As Long as I'm Moving
TTITLE18=It's Love Baby
TTITLE19=I Gotta Have You
TTITLE20=Love Has Joined Us Together
TTITLE21=I Wanna Do More
TTITLE22=Lucky Lips
TTITLE23=One More Time
EXTD=
EXTT0=
EXTT1=
EXTT2=
EXTT3=
EXTT4=
EXTT5=
EXTT6=
EXTT7=
EXTT8=
EXTT9=
EXTT10=
EXTT11=
EXTT12=
EXTT13=
EXTT14=
EXTT15=
EXTT16=
EXTT17=
EXTT18=
EXTT19=
EXTT20=
EXTT21=
EXTT22=
EXTT23=
PLAYORDER=
